# xmcd CD database generated by RipIT
#
# Track frame offsets:
# 150
# 16087
# 30910
# 46750
# 62936
# 79084
# 91710
# 106777
# 120814
# 135374
# 152955
# 170708
# 185051
#
# Disc length: 2663 seconds
#
# Revision: 1
# Processed by: cddbd v1.5.2PL0 Copyright (c) Steve Scherf et al.
# Submitted via: RipIT 4.0.0-beta20140508 www.suwald.com/ripit/ripit.html on 2020-01-11 at 19:55
#
DISCID=910a650d
DTITLE=Fratellis - Costello Music
DYEAR=2006
DGENRE=
TTITLE0=Henrietta
TTITLE1=Flathead
TTITLE2=Country Boys And City Girls
TTITLE3=Whistle For The Choir
TTITLE4=Chelsea Dagger
TTITLE5=For The Girl
TTITLE6=Doginabag
TTITLE7=Creepin' Up The Backstairs
TTITLE8=Vince The Loveable Stoner
TTITLE9=Everybody Knows You Cried Last Night
TTITLE10=Baby Fratelli
TTITLE11=Got Ma Nuts From A Hippy
TTITLE12=Ole Black 'n' Blue Eyes
EXTD=
EXTT0=
EXTT1=
EXTT2=
EXTT3=
EXTT4=
EXTT5=
EXTT6=
EXTT7=
EXTT8=
EXTT9=
EXTT10=
EXTT11=
EXTT12=
PLAYORDER=
